<svg xmlns="http://www.w3.org/2000/svg" viewBox="0 0 1024 1024">
  <defs>
    <linearGradient id="bg" x1="128" y1="96" x2="896" y2="928" gradientUnits="userSpaceOnUse">
      <stop offset="0" stop-color="#0f2b26"/>
      <stop offset="1" stop-color="#1f6f5a"/>
    </linearGradient>
    <linearGradient id="screen" x1="254" y1="252" x2="770" y2="604" gradientUnits="userSpaceOnUse">
      <stop offset="0" stop-color="#d7fff0"/>
      <stop offset="1" stop-color="#6fe0b3"/>
    </linearGradient>
    <filter id="shadow" x="-20%" y="-20%" width="140%" height="140%">
      <feDropShadow dx="0" dy="24" stdDeviation="28" flood-color="#06120f" flood-opacity="0.38"/>
    </filter>
  </defs>
  <rect width="1024" height="1024" rx="224" fill="url(#bg)"/>
  <path d="M251 704c-46 0-83-37-83-83V295c0-46 37-83 83-83h522c46 0 83 37 83 83v326c0 46-37 83-83 83H594v68h92c25 0 45 20 45 45s-20 45-45 45H338c-25 0-45-20-45-45s20-45 45-45h92v-68H251Z" fill="#06211c" opacity="0.42" filter="url(#shadow)"/>
  <path d="M244 668c-42 0-76-34-76-76V272c0-42 34-76 76-76h536c42 0 76 34 76 76v320c0 42-34 76-76 76H244Z" fill="#f8fffc"/>
  <path d="M248 608V276c0-17 14-30 30-30h468c17 0 30 14 30 30v332H248Z" fill="url(#screen)"/>
  <path d="M248 608h528v24c0 17-14 30-30 30H278c-17 0-30-14-30-30v-24Z" fill="#10241f"/>
  <path d="M430 668h164v106H430V668Z" fill="#f8fffc"/>
  <path d="M342 774h340c22 0 40 18 40 40s-18 40-40 40H342c-22 0-40-18-40-40s18-40 40-40Z" fill="#f8fffc"/>
  <rect x="602" y="330" width="172" height="292" rx="38" fill="#0e2c26"/>
  <rect x="626" y="380" width="124" height="194" rx="18" fill="#b9ffe4"/>
  <path d="M664 354h48" stroke="#b9ffe4" stroke-width="18" stroke-linecap="round"/>
  <circle cx="688" cy="598" r="12" fill="#b9ffe4"/>
  <path d="M302 426h176" stroke="#0e2c26" stroke-width="42" stroke-linecap="round"/>
  <path d="M436 358l82 68-82 68" fill="none" stroke="#0e2c26" stroke-width="42" stroke-linecap="round" stroke-linejoin="round"/>
  <path d="M364 338c-48 23-82 72-82 129 0 42 18 80 47 106" fill="none" stroke="#0e2c26" stroke-width="28" stroke-linecap="round"/>
</svg>
